<svg xmlns="http://www.w3.org/2000/svg" viewBox="0 0 168.17 34.8"><defs><style>.cls-1{fill:#575754;}.cls-2{fill:#ee7021;}</style></defs><title>Oticon Medical tagline logo_black with orange_dark sand tagline_32mm_RGB</title><g id="Tagline"><g id="sound_matters" data-name="sound matters"><path class="cls-1" d="M123.47,51.18l.35-.5a2.7,2.7,0,0,0,1.61.6c.56,0,1-.29,1-.74v0c0-.47-.55-.65-1.16-.82s-1.54-.46-1.54-1.31v0A1.41,1.41,0,0,1,125.28,47a3.15,3.15,0,0,1,1.67.51l-.31.52a2.65,2.65,0,0,0-1.38-.45c-.55,0-.9.29-.9.68h0c0,.44.57.62,1.19.81s1.5.49,1.5,1.33v0c0,.88-.73,1.39-1.66,1.39A3.21,3.21,0,0,1,123.47,51.18Z" transform="translate(-17.16 -17.15)"/><path class="cls-1" d="M127.91,49.47v0a2.43,2.43,0,0,1,4.85,0v0a2.42,2.42,0,0,1-2.44,2.43A2.39,2.39,0,0,1,127.91,49.47Zm4.14,0v0a1.76,1.76,0,0,0-1.73-1.82,1.72,1.72,0,0,0-1.7,1.8v0a1.75,1.75,0,0,0,1.72,1.81A1.72,1.72,0,0,0,132.05,49.47Z" transform="translate(-17.16 -17.15)"/><path class="cls-1" d="M133.81,50V47.12h.69v2.72a1.24,1.24,0,0,0,1.29,1.4,1.37,1.37,0,0,0,1.39-1.46V47.12h.69v4.65h-.69V51a1.77,1.77,0,0,1-1.59.91A1.7,1.7,0,0,1,133.81,50Z" transform="translate(-17.16 -17.15)"/><path class="cls-1" d="M139.29,47.12H140v.81a1.75,1.75,0,0,1,1.59-.91,1.7,1.7,0,0,1,1.79,1.86v2.89h-.7V49.05a1.23,1.23,0,0,0-1.28-1.4,1.37,1.37,0,0,0-1.4,1.46v2.66h-.69Z" transform="translate(-17.16 -17.15)"/><path class="cls-1" d="M144.43,49.46v0A2.28,2.28,0,0,1,146.65,47a2.09,2.09,0,0,1,1.78,1V45.2h.7v6.57h-.7v-.94a2.07,2.07,0,0,1-1.78,1A2.26,2.26,0,0,1,144.43,49.46Zm4,0v0a1.73,1.73,0,0,0-1.68-1.79,1.65,1.65,0,0,0-1.64,1.79v0a1.68,1.68,0,0,0,1.64,1.8A1.74,1.74,0,0,0,148.46,49.45Z" transform="translate(-17.16 -17.15)"/><path class="cls-1" d="M153.1,47.12h.7v.78a1.69,1.69,0,0,1,1.5-.88,1.57,1.57,0,0,1,1.49.92,1.87,1.87,0,0,1,1.64-.92,1.67,1.67,0,0,1,1.73,1.87v2.88h-.69V49.05c0-.9-.45-1.4-1.21-1.4A1.3,1.3,0,0,0,157,49.09v2.68h-.69V49c0-.87-.46-1.38-1.2-1.38a1.34,1.34,0,0,0-1.29,1.47v2.65h-.7Z" transform="translate(-17.16 -17.15)"/><path class="cls-1" d="M161.18,50.42v0c0-1,.81-1.5,2-1.5a4.88,4.88,0,0,1,1.43.2v-.17c0-.83-.52-1.26-1.39-1.26a3.19,3.19,0,0,0-1.41.34l-.21-.57a3.9,3.9,0,0,1,1.69-.39,2,2,0,0,1,1.51.52,1.84,1.84,0,0,1,.47,1.36v2.84h-.66v-.7a2.07,2.07,0,0,1-1.69.8A1.57,1.57,0,0,1,161.18,50.42Zm3.43-.36v-.45a4.91,4.91,0,0,0-1.37-.2c-.88,0-1.36.38-1.36,1h0c0,.59.54.93,1.17.93A1.41,1.41,0,0,0,164.61,50.06Z" transform="translate(-17.16 -17.15)"/><path class="cls-1" d="M166.8,50.54V47.73h-.65v-.61h.65V45.71h.69v1.41H169v.61h-1.48v2.72a.69.69,0,0,0,.79.77,1.4,1.4,0,0,0,.67-.16v.59a1.67,1.67,0,0,1-.83.2A1.19,1.19,0,0,1,166.8,50.54Z" transform="translate(-17.16 -17.15)"/><path class="cls-1" d="M170.3,50.54V47.73h-.65v-.61h.65V45.71h.7v1.41h1.47v.61H171v2.72a.69.69,0,0,0,.78.77,1.4,1.4,0,0,0,.67-.16v.59a1.67,1.67,0,0,1-.83.2A1.19,1.19,0,0,1,170.3,50.54Z" transform="translate(-17.16 -17.15)"/><path class="cls-1" d="M173.14,49.46v0A2.29,2.29,0,0,1,175.37,47a2.21,2.21,0,0,1,2.17,2.45,1.62,1.62,0,0,1,0,.23h-3.69a1.63,1.63,0,0,0,1.64,1.58,2,2,0,0,0,1.47-.66l.43.39a2.42,2.42,0,0,1-1.92.87A2.31,2.31,0,0,1,173.14,49.46Zm3.7-.27a1.54,1.54,0,0,0-1.49-1.59,1.61,1.61,0,0,0-1.51,1.59Z" transform="translate(-17.16 -17.15)"/><path class="cls-1" d="M178.62,47.12h.69v1.21a2,2,0,0,1,1.9-1.29v.74h-.05a1.88,1.88,0,0,0-1.85,2.14v1.85h-.69Z" transform="translate(-17.16 -17.15)"/><path class="cls-1" d="M181.74,51.18l.35-.5a2.72,2.72,0,0,0,1.61.6c.56,0,1-.29,1-.74v0c0-.47-.55-.65-1.16-.82S182,49.24,182,48.39v0A1.4,1.4,0,0,1,183.55,47a3.09,3.09,0,0,1,1.67.51l-.31.52a2.63,2.63,0,0,0-1.38-.45c-.55,0-.9.29-.9.68h0c0,.44.58.62,1.2.81s1.49.49,1.49,1.33v0a1.46,1.46,0,0,1-1.65,1.39A3.21,3.21,0,0,1,181.74,51.18Z" transform="translate(-17.16 -17.15)"/></g><g id="Because"><path class="cls-1" d="M123.6,34.13h2.69a2.3,2.3,0,0,1,1.64.55,1.38,1.38,0,0,1,.41,1v0a1.52,1.52,0,0,1-1,1.46,1.58,1.58,0,0,1,1.35,1.52v0c0,1.08-.91,1.72-2.29,1.72h-2.8Zm4,1.66c0-.62-.5-1-1.4-1h-1.91v2.17h1.86c.86,0,1.45-.38,1.45-1.12Zm-1.32,1.77h-2v2.23h2.11c1,0,1.55-.43,1.55-1.13v0C128,38,127.39,37.56,126.3,37.56Z" transform="translate(-17.16 -17.15)"/><path class="cls-1" d="M129.56,38.11h0a2.3,2.3,0,0,1,2.23-2.43A2.22,2.22,0,0,1,134,38.13a1.69,1.69,0,0,1,0,.23h-3.69a1.63,1.63,0,0,0,1.64,1.57,1.92,1.92,0,0,0,1.47-.66l.43.39a2.41,2.41,0,0,1-1.92.88A2.32,2.32,0,0,1,129.56,38.11Zm3.7-.27a1.53,1.53,0,0,0-1.48-1.58,1.61,1.61,0,0,0-1.52,1.58Z" transform="translate(-17.16 -17.15)"/><path class="cls-1" d="M134.75,38.12v0A2.42,2.42,0,0,1,139,36.5l-.46.49a1.85,1.85,0,0,0-1.41-.7,1.72,1.72,0,0,0-1.66,1.8h0a1.73,1.73,0,0,0,1.71,1.81,1.91,1.91,0,0,0,1.42-.69l.44.41a2.41,2.41,0,0,1-4.29-1.51Z" transform="translate(-17.16 -17.15)"/><path class="cls-1" d="M139.7,39.08v0c0-1,.81-1.5,2-1.5a5.29,5.29,0,0,1,1.44.19v-.16c0-.84-.52-1.27-1.39-1.27a3.33,3.33,0,0,0-1.41.34l-.21-.56a3.76,3.76,0,0,1,1.69-.39,2.07,2.07,0,0,1,1.51.51,1.87,1.87,0,0,1,.47,1.36v2.85h-.66v-.7a2.07,2.07,0,0,1-1.69.8A1.57,1.57,0,0,1,139.7,39.08Zm3.43-.36v-.45a4.91,4.91,0,0,0-1.37-.2c-.88,0-1.36.38-1.36,1v0c0,.58.54.93,1.17.93A1.41,1.41,0,0,0,143.13,38.72Z" transform="translate(-17.16 -17.15)"/><path class="cls-1" d="M145.05,38.66V35.77h.69v2.72A1.24,1.24,0,0,0,147,39.9a1.38,1.38,0,0,0,1.4-1.46V35.77h.68v4.66h-.68v-.81a1.8,1.8,0,0,1-1.6.91A1.7,1.7,0,0,1,145.05,38.66Z" transform="translate(-17.16 -17.15)"/><path class="cls-1" d="M150.14,39.83l.36-.49a2.69,2.69,0,0,0,1.61.59c.56,0,1-.29,1-.74h0c0-.47-.55-.65-1.16-.82s-1.54-.46-1.54-1.32v0A1.41,1.41,0,0,1,152,35.69a3.16,3.16,0,0,1,1.68.52l-.32.52a2.59,2.59,0,0,0-1.37-.45c-.55,0-.9.28-.9.67v0c0,.44.57.61,1.19.8s1.5.5,1.5,1.33v0a1.47,1.47,0,0,1-1.66,1.4A3.18,3.18,0,0,1,150.14,39.83Z" transform="translate(-17.16 -17.15)"/><path class="cls-1" d="M154.59,38.11h0a2.3,2.3,0,0,1,2.23-2.43A2.22,2.22,0,0,1,159,38.13a1.69,1.69,0,0,1,0,.23h-3.69a1.63,1.63,0,0,0,1.64,1.57,1.92,1.92,0,0,0,1.47-.66l.43.39a2.41,2.41,0,0,1-1.92.88A2.32,2.32,0,0,1,154.59,38.11Zm3.7-.27a1.53,1.53,0,0,0-1.49-1.58,1.6,1.6,0,0,0-1.51,1.58Z" transform="translate(-17.16 -17.15)"/></g><rect id="Breaking_line" data-name="Breaking line" class="cls-2" x="98.16" y="6.83" width="0.85" height="27.85"/></g><g id="Logo_Gotham_font" data-name="Logo Gotham font"><polygon points="37.65 27.55 35.33 31.04 33 27.55 31.91 27.55 31.91 34.68 33.07 34.68 33.07 29.74 35.12 32.75 35.22 32.84 35.45 32.84 37.56 29.74 37.56 34.68 38.75 34.68 38.75 27.55 37.65 27.55"/><polygon points="43.84 33.56 43.84 31.65 47.5 31.65 47.5 30.53 43.84 30.53 43.84 28.67 47.93 28.67 47.93 27.55 42.66 27.55 42.66 34.68 47.98 34.68 47.98 33.56 43.84 33.56"/><path d="M71.06,44.7H68.52v7.13h2.54a3.57,3.57,0,1,0,0-7.13Zm0,6H69.7V45.83h1.36a2.39,2.39,0,0,1,2.56,2.44v0A2.39,2.39,0,0,1,71.06,50.71Z" transform="translate(-17.16 -17.15)"/><rect x="61.28" y="27.55" width="1.18" height="7.13"/><path d="M89,49.77l-.15.14a2.7,2.7,0,0,1-2,.91,2.45,2.45,0,0,1-2.38-2.57,2.41,2.41,0,0,1,2.38-2.53,2.64,2.64,0,0,1,2,.86l.16.15.81-.87-.16-.15a3.66,3.66,0,0,0-2.76-1.12,3.61,3.61,0,0,0-3.6,3.7A3.54,3.54,0,0,0,86.81,52a3.74,3.74,0,0,0,2.83-1.24l.15-.16Z" transform="translate(-17.16 -17.15)"/><path d="M96.55,44.66h-1l-3.25,7.17h1.24l.8-1.77h3.37l.78,1.77H99.8ZM97.24,49H94.85l1.2-2.67Z" transform="translate(-17.16 -17.15)"/><polygon points="86.94 33.56 86.94 27.55 85.75 27.55 85.75 34.68 90.71 34.68 90.71 33.56 86.94 33.56"/><g id="Oticon"><g id="orange_dot" data-name="orange dot"><path class="cls-2" d="M49.06,21.38h4.33V17.15l-4.33.76Z" transform="translate(-17.16 -17.15)"/></g><g id="Oticon-2" data-name="Oticon"><path d="M64.81,23.4A8.61,8.61,0,1,0,70.94,38l-2.81-2.81a4.68,4.68,0,0,1-3.32,1.41,4.63,4.63,0,0,1,0-9.25,4.68,4.68,0,0,1,3.32,1.41L70.94,26A8.54,8.54,0,0,0,64.81,23.4Z" transform="translate(-17.16 -17.15)"/><path d="M25.76,23.4a8.61,8.61,0,1,0,8.6,8.6A8.61,8.61,0,0,0,25.76,23.4Zm0,13.23A4.63,4.63,0,1,1,30.38,32,4.63,4.63,0,0,1,25.76,36.63Z" transform="translate(-17.16 -17.15)"/><path d="M37.11,20V34.3c0,5.7,4.87,6.31,7,6.31a9,9,0,0,0,1.28-.09l.09,0V36.77h-.86a2.8,2.8,0,0,1-3.14-3V27.71h4V24h-4V19.27Z" transform="translate(-17.16 -17.15)"/><path d="M80.65,23.4A8.61,8.61,0,1,0,89.26,32,8.61,8.61,0,0,0,80.65,23.4Zm0,13.23A4.63,4.63,0,1,1,85.28,32,4.63,4.63,0,0,1,80.65,36.63Z" transform="translate(-17.16 -17.15)"/><path d="M49.06,40.43h4.33V24H49.06Z" transform="translate(-17.16 -17.15)"/><path d="M103.54,40.43h4.33V29.62A5.64,5.64,0,0,0,102.23,24H92.05V40.43h4.33V27.71h4.77a2.4,2.4,0,0,1,2.39,2.39Z" transform="translate(-17.16 -17.15)"/></g></g></g></svg>